REM DIRINDEX 1\2,1\3,1\4,1\5,1\6
REM DIRNAME cjc136,folder01,folder02,folder03,folder04,folder05
TITLE ""
FILE "Track15.mp3" MP3
  TRACK 01 AUDIO
    TITLE "0:"
    INDEX 01 00:00:00
  TRACK 02 AUDIO
    TITLE "2:cjc136_0253"
    INDEX 01 00:05:10
  TRACK 03 AUDIO
    TITLE "0:"
    INDEX 01 00:06:51
  TRACK 04 AUDIO
    TITLE "3:cjc136_0254"
    INDEX 01 00:07:07
  TRACK 05 AUDIO
    TITLE "0:"
    INDEX 01 00:08:24
  TRACK 06 AUDIO
    TITLE "4:cjc136_0255"
    INDEX 01 00:08:60
  TRACK 07 AUDIO
    TITLE "0:"
    INDEX 01 00:10:08
  TRACK 08 AUDIO
    TITLE "5:cjc136_0256"
    INDEX 01 00:13:16
  TRACK 09 AUDIO
    TITLE "0:"
    INDEX 01 00:15:19
  TRACK 10 AUDIO
    TITLE "5:cjc136_0257"
    INDEX 01 00:15:21
  TRACK 11 AUDIO
    TITLE "0:"
    INDEX 01 00:17:16
  TRACK 12 AUDIO
    TITLE "2:cjc136_0258"
    INDEX 01 00:20:28
  TRACK 13 AUDIO
    TITLE "0:"
    INDEX 01 00:22:54
  TRACK 14 AUDIO
    TITLE "3:cjc136_0259"
    INDEX 01 00:23:34
  TRACK 15 AUDIO
    TITLE "0:"
    INDEX 01 00:26:22
  TRACK 16 AUDIO
    TITLE "5:cjc136_0260"
    INDEX 01 00:27:57
  TRACK 17 AUDIO
    TITLE "0:"
    INDEX 01 00:29:23
  TRACK 18 AUDIO
    TITLE "5:cjc136_0261"
    INDEX 01 00:29:72
  TRACK 19 AUDIO
    TITLE "0:"
    INDEX 01 00:32:27
  TRACK 20 AUDIO
    TITLE "5:cjc136_0262"
    INDEX 01 00:33:03
  TRACK 21 AUDIO
    TITLE "0:"
    INDEX 01 00:35:29
  TRACK 22 AUDIO
    TITLE "5:cjc136_0263"
    INDEX 01 00:38:31
  TRACK 23 AUDIO
    TITLE "0:"
    INDEX 01 00:43:60
  TRACK 24 AUDIO
    TITLE "5:cjc136_0264"
    INDEX 01 00:43:62
  TRACK 25 AUDIO
    TITLE "0:"
    INDEX 01 00:45:53
  TRACK 26 AUDIO
    TITLE "2:cjc136_0265"
    INDEX 01 00:51:30
  TRACK 27 AUDIO
    TITLE "0:"
    INDEX 01 00:53:17
  TRACK 28 AUDIO
    TITLE "3:cjc136_0266"
    INDEX 01 00:53:49
  TRACK 29 AUDIO
    TITLE "0:"
    INDEX 01 00:54:60
  TRACK 30 AUDIO
    TITLE "4:cjc136_0267"
    INDEX 01 00:55:28
  TRACK 31 AUDIO
    TITLE "0:"
    INDEX 01 00:56:43
  TRACK 32 AUDIO
    TITLE "5:cjc136_0268"
    INDEX 01 00:58:67
  TRACK 33 AUDIO
    TITLE "0:"
    INDEX 01 01:00:02
  TRACK 34 AUDIO
    TITLE "5:cjc136_0269"
    INDEX 01 01:01:21
  TRACK 35 AUDIO
    TITLE "0:"
    INDEX 01 01:02:44
  TRACK 36 AUDIO
    TITLE "5:cjc136_0270"
    INDEX 01 01:03:16
  TRACK 37 AUDIO
    TITLE "0:"
    INDEX 01 01:04:41
  TRACK 38 AUDIO
    TITLE "6:cjc136_0271"
    INDEX 01 01:05:73
  TRACK 39 AUDIO
    TITLE "0:"
    INDEX 01 01:15:62
  TRACK 40 AUDIO
    TITLE "5:cjc136_0272"
    INDEX 01 01:19:01
  TRACK 41 AUDIO
    TITLE "0:"
    INDEX 01 01:22:64
  TRACK 42 AUDIO
    TITLE "5:cjc136_0273"
    INDEX 01 01:22:66
  TRACK 43 AUDIO
    TITLE "0:"
    INDEX 01 01:24:24
  TRACK 44 AUDIO
    TITLE "2:cjc136_0274"
    INDEX 01 01:27:40
  TRACK 45 AUDIO
    TITLE "0:"
    INDEX 01 01:29:56
  TRACK 46 AUDIO
    TITLE "3:cjc136_0275"
    INDEX 01 01:30:32
  TRACK 47 AUDIO
    TITLE "0:"
    INDEX 01 01:31:63
  TRACK 48 AUDIO
    TITLE "4:cjc136_0276"
    INDEX 01 01:32:53
  TRACK 49 AUDIO
    TITLE "0:"
    INDEX 01 01:34:14
  TRACK 50 AUDIO
    TITLE "5:cjc136_0277"
    INDEX 01 01:36:35
  TRACK 51 AUDIO
    TITLE "0:"
    INDEX 01 01:38:38
  TRACK 52 AUDIO
    TITLE "5:cjc136_0278"
    INDEX 01 01:40:03
  TRACK 53 AUDIO
    TITLE "0:"
    INDEX 01 01:41:56
  TRACK 54 AUDIO
    TITLE "5:cjc136_0279"
    INDEX 01 01:42:31
  TRACK 55 AUDIO
    TITLE "0:"
    INDEX 01 01:44:05
  TRACK 56 AUDIO
    TITLE "5:cjc136_0280"
    INDEX 01 01:47:27
  TRACK 57 AUDIO
    TITLE "0:"
    INDEX 01 01:49:71
  TRACK 58 AUDIO
    TITLE "5:cjc136_0281"
    INDEX 01 01:49:73
  TRACK 59 AUDIO
    TITLE "0:"
    INDEX 01 01:51:66
